<svg xmlns="http://www.w3.org/2000/svg" viewBox="0 0 166 166"><defs><style>.cls-1,.cls-3{fill:#5c6bc0;}.cls-2,.cls-4{fill:#c05c9d;}.cls-3,.cls-4,.cls-5{stroke:#fff;stroke-miterlimit:10;}.cls-3,.cls-4{stroke-width:2px;}.cls-5{fill:none;}</style></defs><g id="Layer_2" data-name="Layer 2"><g id="Layer_1-2" data-name="Layer 1"><path class="cls-1" d="M77,39V94.25c0,23.75-12,32.38-31.94,32.38a31.83,31.83,0,0,1-14.9-3.38l2.68-12.37a23.29,23.29,0,0,0,11.32,3c12.35,0,18.84-5,18.84-19.88V51H32V39Z"/><polygon class="cls-2" points="138 113 138 125 90 125 90 39 103 39 103 113 138 113"/><path class="cls-3" d="M83,79.09c8.93-6.77,15.17-14.36,25.91-13.37C126.32,67.34,138.63,90,138,90.64c-.34.35-4.43-4.88-12.45-8.31-10.54-4.5-20.71-2.82-24.91-2.07A42.73,42.73,0,0,0,83,87.39"/><path class="cls-4" d="M83,88v-.61c-7.33,5-11.79,10.71-21.84,11.55-16.9,1.42-32-12.27-31.14-14.53.79-2,13.66,6.49,31.14,4.15C70.7,87.29,77.38,83.35,83,79.09"/><rect class="cls-5" x="0.5" y="0.5" width="165" height="165"/></g></g></svg>