<svg xmlns="http://www.w3.org/2000/svg" viewBox="0 0 165 165"><defs><style>.cls-1,.cls-3{fill:#5c6bc0;}.cls-2,.cls-4{fill:#c05c9d;}.cls-3,.cls-4{stroke:#fff;stroke-miterlimit:10;stroke-width:2px;}.cls-5{fill:none;}</style></defs><g id="Layer_2" data-name="Layer 2"><g id="Layer_1-2" data-name="Layer 1"><path class="cls-1" d="M76.5,38.5V93.75c0,23.75-12,32.38-31.94,32.38a31.83,31.83,0,0,1-14.9-3.38l2.68-12.37a23.29,23.29,0,0,0,11.32,3c12.35,0,18.84-5,18.84-19.88v-43h-31v-12Z"/><polygon class="cls-2" points="137.5 112.5 137.5 124.5 89.5 124.5 89.5 38.5 102.5 38.5 102.5 112.5 137.5 112.5"/><path class="cls-3" d="M82.5,78.59c8.93-6.77,15.17-14.36,25.91-13.37,17.41,1.62,29.72,24.23,29.06,24.92-.34.35-4.43-4.88-12.45-8.31-10.54-4.5-20.71-2.82-24.91-2.07A42.73,42.73,0,0,0,82.5,86.89"/><path class="cls-4" d="M82.5,87.5v-.61c-7.33,5-11.79,10.71-21.84,11.55-16.9,1.42-32-12.27-31.14-14.53.79-2,13.66,6.49,31.14,4.15,9.54-1.27,16.22-5.21,21.84-9.47"/><rect class="cls-5" width="165" height="165"/></g></g></svg>