<svg xmlns="http://www.w3.org/2000/svg" viewBox="0 0 209 209"><defs><style>.cls-1{fill:#5c6bc0;}.cls-2{fill:#c05c9d;}.cls-3{fill:none;}</style></defs><g id="Layer_2" data-name="Layer 2"><g id="Layer_1-2" data-name="Layer 1"><path class="cls-1" d="M95,48v55.51a53,53,0,0,1-18,6.69V63H38V48Z"/><path class="cls-1" d="M95,118.46v.09c0,30.08-15.15,41-40.46,41a40.23,40.23,0,0,1-18.87-4.29l3.39-15.66a29.55,29.55,0,0,0,14.34,3.8c13,0,20.83-4.35,23.14-16.56C84.56,125.86,89.84,122.39,95,118.46Z"/><path class="cls-2" d="M128,48V82.28c-6,1.3-11,4.89-16,9V48Z"/><path class="cls-2" d="M172,142v15H112V107a53.85,53.85,0,0,1,13.28-4.16c.73-.14,1.65-.31,2.72-.47V142Z"/><rect class="cls-3" width="209" height="209"/><path class="cls-1" d="M169.06,111.11c-17.42-15.38-47.52-14.73-66.33-1.91v-7c8.44-5.46,15.29-14.07,25.33-16.56C145.83,81,163.9,101.55,169.06,111.11Z"/><path class="cls-2" d="M103,109c-2.24,1.53-5,4-7,5.52-.23.18-.44.36-.67.52-1,.8-2,1.57-3,2.3-.6.45-1.21.88-1.82,1.3-.44.3-.9.59-1.35.88s-.79.5-1.18.73-.73.43-1.11.62-1,.5-1.45.73c-.33.15-.66.31-1,.44a3,3,0,0,1-.33.14c-.34.14-.68.28-1,.41A29.85,29.85,0,0,1,77.34,124h-.1c-.21,0-.41.06-.61.07-.46.07-.93.12-1.4.16-18.64,1.55-35.64-12-37.87-16.19a44,44,0,0,1,4.3,1.28c6.67,2.19,19.08,6.25,33.84,4.28.74-.1,1.46-.22,2.17-.33a.53.53,0,0,0,.12,0,52.58,52.58,0,0,0,17.61-6.63C98.28,105,100,104,103,102"/></g></g></svg>